<?xml version="1.0" standalone="no"?>
<!DOCTYPE svg PUBLIC "-//W3C//DTD SVG 20010904//EN"
 "http://www.w3.org/TR/2001/REC-SVG-20010904/DTD/svg10.dtd">
<svg version="1.0" xmlns="http://www.w3.org/2000/svg"
 width="250.000000pt" height="250.000000pt" viewBox="0 0 250.000000 250.000000"
 preserveAspectRatio="xMidYMid meet">
<metadata>
Created by potrace 1.14, written by Peter Selinger 2001-2017
</metadata>
<g transform="translate(0.000000,250.000000) scale(0.100000,-0.100000)"
fill="#000000" stroke="none">
<path d="M966 2488 c3 -5 10 -5 16 -2 7 4 8 2 4 -4 -5 -9 -13 -9 -26 -2 -13 7
-21 7 -26 -2 -4 -6 -3 -8 3 -5 6 4 17 -1 24 -11 13 -15 12 -16 -3 -3 -10 7
-18 10 -18 7 0 -4 -9 -2 -19 4 -13 7 -20 7 -23 -1 -5 -14 -41 -19 -49 -6 -4 6
-15 7 -25 2 -23 -10 -30 -12 -46 -14 -9 -1 -10 -4 -2 -9 13 -8 15 -44 2 -36
-5 3 -6 9 -3 14 3 4 -2 11 -11 14 -8 3 -13 2 -9 -3 8 -14 -6 -42 -17 -35 -6 4
-6 9 2 14 8 5 7 9 -5 13 -9 4 -13 3 -10 -3 3 -6 -1 -10 -9 -10 -9 0 -16 -5
-16 -10 0 -7 -6 -7 -19 -1 -21 12 -52 -11 -31 -24 16 -10 2 -25 -17 -18 -12 5
-14 3 -8 -8 7 -11 6 -12 -6 -2 -9 7 -26 10 -39 8 -28 -5 -47 -22 -25 -22 8 0
15 3 15 7 0 4 7 7 15 7 8 0 15 -2 15 -3 0 -5 -59 -34 -67 -33 -4 0 -9 -5 -11
-13 -2 -9 0 -8 7 2 6 8 11 10 11 4 0 -21 -14 -24 -33 -7 -14 13 -18 14 -12 3
14 -22 15 -40 2 -37 -6 1 -11 -3 -12 -10 0 -6 -3 -15 -7 -19 -4 -3 -6 2 -4 13
3 11 0 26 -6 34 -8 11 -9 11 -4 -3 3 -10 -1 -24 -9 -32 -8 -7 -11 -17 -7 -21
4 -4 0 -5 -8 -3 -9 2 -14 -3 -12 -12 2 -8 0 -12 -3 -8 -4 4 -16 3 -27 -3 -14
-7 -23 -7 -33 1 -10 8 -15 8 -21 -1 -4 -7 -3 -9 4 -5 6 3 13 2 17 -4 6 -10 -6
-14 -35 -11 -11 1 -11 -1 3 -9 20 -13 23 -32 4 -24 -14 5 -57 -30 -57 -47 0
-6 11 3 25 18 13 15 25 22 25 15 0 -7 5 -10 12 -6 7 4 8 3 4 -4 -4 -6 -14 -8
-23 -5 -12 5 -14 3 -8 -7 5 -9 4 -11 -3 -6 -7 4 -12 3 -12 -3 0 -5 6 -12 13
-14 9 -4 9 -6 -1 -6 -7 -1 -11 -5 -7 -10 3 -5 0 -13 -6 -17 -8 -4 -9 -3 -5 4
3 6 -3 16 -15 22 -17 10 -20 9 -13 -1 14 -22 12 -48 -3 -42 -10 4 -11 9 -3 18
8 9 6 14 -4 18 -10 4 -13 1 -9 -9 3 -8 -1 -14 -8 -14 -9 -1 -8 -4 4 -11 9 -5
17 -18 16 -27 0 -14 -2 -14 -7 -2 -9 19 -38 24 -48 9 -5 -9 -2 -10 10 -6 12 5
16 3 13 -5 -2 -7 -13 -12 -23 -11 -18 1 -18 1 0 -13 19 -14 19 -14 -2 -14 -12
0 -22 -5 -22 -11 0 -5 4 -8 8 -5 4 2 14 1 21 -3 9 -6 10 -11 2 -15 -6 -4 -11
-2 -11 4 0 6 -5 8 -10 5 -6 -4 -7 -11 -4 -17 4 -7 2 -8 -5 -4 -6 4 -9 11 -6
16 3 4 -5 5 -17 2 -19 -5 -20 -7 -5 -10 31 -6 17 -28 -15 -23 -5 0 -8 -4 -8
-10 0 -7 7 -8 18 -4 9 4 28 9 42 11 18 3 21 2 10 -5 -8 -5 -18 -7 -22 -5 -4 3
-8 0 -8 -5 0 -6 -7 -11 -15 -11 -8 0 -15 -4 -15 -9 0 -6 9 -8 20 -6 12 2 18 0
15 -6 -4 -5 -10 -7 -15 -4 -11 7 -60 -52 -60 -71 0 -9 -5 -13 -12 -9 -7 4 -6
0 3 -7 12 -10 13 -16 5 -24 -40 -41 -49 -58 -37 -76 11 -18 11 -18 -12 -3 -20
13 -24 13 -24 1 0 -8 3 -15 6 -14 20 2 22 -4 6 -15 -14 -11 -15 -16 -5 -22 9
-6 11 -4 5 5 -6 9 -4 11 5 5 10 -6 8 -13 -10 -27 l-23 -19 21 -6 c12 -3 22
-10 22 -15 0 -6 -7 -8 -15 -5 -17 7 -29 -9 -31 -40 0 -14 3 -20 10 -16 7 4 7
2 -1 -8 -8 -9 -11 -77 -11 -213 0 -170 2 -202 15 -211 13 -10 13 -14 3 -20 -9
-5 -11 -4 -6 3 4 7 2 12 -3 12 -16 0 -7 -43 10 -48 11 -3 11 -1 -1 7 -12 9
-11 10 7 8 12 -2 26 -7 30 -12 5 -4 3 -5 -4 -1 -7 4 -18 -6 -27 -24 -8 -17
-10 -27 -4 -24 7 5 9 -4 6 -25 -3 -21 0 -31 9 -31 7 0 13 -4 13 -10 0 -5 -7
-10 -15 -10 -8 0 -15 -4 -15 -10 0 -5 7 -7 15 -4 10 4 15 0 15 -16 0 -13 -4
-19 -12 -14 -7 4 -8 3 -4 -5 6 -9 11 -9 22 0 11 9 14 9 14 0 0 -7 5 -9 12 -5
7 4 8 3 4 -4 -4 -7 -3 -20 3 -29 7 -13 5 -23 -7 -37 -9 -11 -11 -16 -4 -12 7
4 12 2 12 -7 0 -13 21 -29 43 -31 4 -1 7 -4 7 -8 0 -5 0 -11 0 -14 0 -4 -7 -1
-15 6 -9 7 -15 8 -15 2 0 -13 29 -24 42 -15 7 3 8 1 4 -5 -4 -7 -2 -12 4 -12
6 0 9 -4 5 -9 -3 -5 4 -16 16 -24 12 -9 16 -18 10 -21 -5 -4 -8 -14 -5 -24 5
-14 4 -14 -4 -3 -6 8 -8 21 -5 30 4 14 3 14 -7 1 -10 -13 -11 -12 -5 5 5 15 3
17 -6 8 -9 -9 -6 -19 11 -42 12 -17 26 -29 31 -26 5 4 9 3 10 -2 4 -46 21 -66
47 -55 11 4 13 2 6 -9 -4 -8 -10 -23 -11 -34 -2 -16 -1 -17 6 -5 5 8 7 18 4
24 -3 5 -1 6 5 2 6 -4 8 -14 5 -23 -4 -10 -2 -14 5 -9 15 9 23 -7 10 -24 -8
-12 -8 -11 -3 5 5 15 3 17 -6 8 -12 -12 -5 -33 11 -33 5 0 12 10 15 21 6 17 9
19 16 8 5 -8 6 -22 3 -33 -4 -12 -2 -16 5 -12 6 4 11 0 11 -10 0 -12 6 -15 25
-12 20 4 23 3 14 -8 -9 -11 -8 -14 0 -14 7 0 9 -5 5 -12 -5 -8 0 -7 11 2 17
14 18 13 12 -5 -7 -20 -7 -20 8 -1 17 22 20 14 6 -13 -6 -10 -6 -23 0 -32 7
-11 9 -11 9 0 0 10 3 11 13 2 9 -7 17 -7 24 0 11 11 43 -13 43 -33 0 -6 -9 0
-20 13 -10 13 -19 20 -20 16 0 -5 7 -15 15 -24 8 -8 12 -20 8 -26 -5 -8 -2 -8
9 0 8 7 19 9 23 5 5 -4 5 -1 0 7 -6 10 -4 12 4 7 7 -5 10 -15 7 -23 -4 -9 -2
-11 6 -6 23 13 44 10 44 -8 0 -17 -2 -17 -18 -2 -10 9 -18 11 -18 6 0 -6 7
-14 16 -17 9 -4 12 -11 8 -18 -5 -8 2 -6 17 3 21 14 28 15 44 3 10 -8 15 -17
12 -21 -4 -3 -14 2 -22 13 -8 10 -15 14 -15 8 0 -22 26 -35 52 -25 20 7 24 6
25 -10 1 -10 -3 -19 -8 -19 -6 0 -7 5 -3 12 4 7 3 8 -5 4 -14 -9 -4 -29 12
-23 7 2 22 0 34 -4 18 -7 21 -5 17 9 -5 14 -3 14 10 -2 14 -17 16 -18 22 -2 6
15 7 15 20 -1 11 -15 11 -20 -4 -32 -16 -13 -16 -13 1 -8 10 4 20 1 23 -7 3
-7 12 -13 21 -13 14 0 14 2 -1 12 -18 14 -21 31 -6 40 6 4 7 -1 3 -11 -5 -13
-3 -15 7 -9 7 5 11 4 8 -1 -3 -5 0 -15 7 -21 11 -10 15 -9 18 5 4 15 5 15 6
-2 1 -11 6 -16 15 -13 7 3 19 0 25 -6 8 -8 14 -8 24 2 10 10 9 11 -5 6 -10 -4
-18 -3 -18 2 0 16 53 8 58 -7 3 -13 2 -12 -7 0 -6 8 -11 10 -11 4 0 -18 13
-24 27 -13 9 8 13 8 13 1 0 -6 6 -9 14 -6 18 7 30 -12 15 -22 -8 -5 -9 -3 -4
6 5 8 3 11 -6 8 -8 -3 -14 -10 -14 -16 0 -5 -3 -14 -7 -18 -4 -3 -5 4 -3 16 2
12 2 20 -1 17 -3 -3 -6 -9 -6 -14 -1 -4 -8 -13 -16 -19 -10 -7 49 -11 213 -12
169 -2 224 1 219 9 -5 8 -3 9 7 3 8 -5 29 -9 47 -10 30 -2 32 -1 15 11 -10 7
-20 12 -24 10 -3 -2 -6 2 -6 10 0 13 4 12 19 -2 17 -15 18 -15 18 0 0 10 -4
17 -10 17 -5 0 -10 5 -10 10 0 20 17 9 34 -22 9 -18 14 -24 10 -13 -3 11 -7
25 -8 30 -1 6 -5 16 -9 23 -12 18 4 14 20 -6 13 -16 14 -15 8 5 -3 12 -1 24 4
28 7 3 8 0 5 -9 -3 -9 -1 -16 5 -16 6 0 11 5 11 12 0 6 3 8 6 5 4 -4 2 -12 -4
-20 -8 -10 -7 -13 7 -13 13 0 17 5 13 16 -5 13 -4 13 13 0 11 -9 16 -10 11 -2
-9 15 -1 15 24 2 14 -7 23 -6 34 5 18 18 30 20 20 2 -4 -6 4 -2 18 11 13 12
28 19 33 15 4 -5 5 -2 1 5 -6 9 -11 10 -21 2 -9 -7 -16 -6 -24 4 -8 10 -9 16
-1 21 6 4 9 3 8 -2 -2 -4 2 -8 7 -8 6 0 9 5 7 10 -2 6 2 4 9 -3 15 -13 33 -17
25 -4 -3 5 1 9 9 9 8 0 12 -3 10 -7 -3 -4 6 -7 18 -6 17 1 21 7 19 26 -3 24
-2 24 13 5 9 -11 14 -15 11 -8 -4 6 -1 15 5 19 8 5 8 8 -1 14 -8 5 -7 9 5 13
9 4 14 3 11 -2 -3 -5 1 -12 10 -15 8 -3 13 -2 10 3 -9 14 23 22 44 11 13 -7
21 -7 26 2 5 7 3 8 -6 3 -8 -5 -11 -3 -8 6 3 8 9 14 14 14 25 1 47 24 42 43
-4 16 -2 19 10 15 11 -5 13 -3 7 8 -5 8 -4 11 0 6 5 -4 17 7 28 25 10 18 16
25 13 16 -3 -10 -1 -28 4 -40 8 -21 9 -22 11 -3 1 11 1 23 0 28 -2 11 17 9 24
-3 5 -8 11 -7 21 1 7 6 11 15 8 20 -3 5 3 9 13 10 10 0 13 3 6 6 -7 2 -13 9
-13 14 0 13 23 7 35 -9 8 -10 11 -9 11 7 0 11 -4 17 -8 15 -14 -9 -8 23 7 36
8 6 13 15 12 18 -2 8 7 12 26 12 6 0 4 -5 -6 -11 -9 -6 -15 -15 -11 -20 9 -16
32 22 29 48 -1 14 2 22 9 20 6 -2 10 -13 8 -23 -2 -14 -1 -16 6 -5 5 7 16 18
23 23 11 8 10 9 -3 4 -10 -3 -18 -2 -19 2 0 4 -2 15 -4 25 -2 9 1 15 5 12 5
-3 11 -1 15 5 4 6 11 8 16 5 5 -3 6 2 2 11 -4 12 -3 15 5 10 7 -4 12 -14 12
-23 0 -9 2 -14 5 -11 10 10 -7 58 -18 51 -6 -3 -7 -1 -3 6 4 6 12 8 18 5 7 -5
9 -1 5 9 -4 12 -2 14 11 10 9 -4 21 -11 25 -17 5 -7 7 -6 6 4 -3 30 1 41 13
34 7 -4 8 -3 4 5 -4 6 -11 9 -16 6 -5 -3 -12 -1 -15 5 -4 6 -3 10 2 9 22 -4
44 2 38 11 -3 5 -13 7 -23 4 -15 -5 -15 -4 1 6 15 10 16 14 5 28 -9 10 -9 13
-1 9 12 -7 37 25 28 35 -3 3 1 5 9 5 12 0 11 -5 -2 -25 -19 -28 -25 -55 -11
-46 5 3 7 10 4 15 -4 5 1 12 9 15 9 3 14 10 11 14 -3 5 -1 12 5 15 8 5 8 11 0
20 -8 10 -8 15 1 21 8 5 9 3 4 -6 -5 -9 -4 -11 4 -6 6 4 9 11 6 16 -3 5 -1 11
5 15 7 4 6 14 -2 28 -10 20 -10 21 6 8 14 -12 16 -12 11 2 -4 8 -1 18 4 22 6
3 9 10 6 15 -3 5 0 12 6 16 7 4 9 3 6 -3 -3 -5 0 -10 8 -10 13 0 13 3 2 16
-16 19 -15 28 2 59 10 19 15 21 27 11 8 -7 14 -7 14 -1 0 14 -28 23 -35 12 -4
-6 -12 -10 -18 -9 -9 0 -8 2 1 6 6 2 10 8 7 13 -3 5 6 7 20 5 16 -1 25 3 25
12 0 9 -5 11 -12 7 -8 -5 -7 0 2 11 13 17 13 18 -1 13 -9 -3 -22 -2 -30 4 -11
8 -10 9 4 4 19 -6 23 4 7 20 -8 8 -5 15 7 25 16 13 17 12 5 -2 -11 -14 -9 -20
13 -37 26 -20 35 -39 13 -26 -10 5 -10 4 -1 -6 6 -7 9 -19 6 -26 -3 -8 -1 -14
5 -14 10 0 14 522 5 547 -3 7 -9 10 -14 7 -5 -3 -9 0 -9 7 0 7 -2 10 -5 7 -10
-9 7 -38 18 -31 6 3 7 1 3 -6 -6 -8 -12 -9 -20 -2 -9 7 -16 7 -24 -1 -9 -9
-12 -9 -12 0 0 7 5 12 10 12 6 0 10 5 10 11 0 5 -4 7 -10 4 -14 -9 -12 8 3 24
7 9 7 11 1 8 -17 -9 -25 18 -11 33 9 10 9 11 -2 5 -11 -7 -13 -2 -8 25 6 30 6
31 -10 19 -16 -13 -16 -11 1 15 14 22 15 30 6 36 -7 5 -10 15 -7 23 4 11 1 14
-9 10 -13 -5 -13 -8 1 -29 14 -22 14 -24 0 -24 -9 0 -14 4 -10 9 3 5 -1 16 -9
24 -11 11 -12 17 -3 27 8 9 8 11 1 7 -7 -4 -15 0 -18 9 -3 8 -2 13 2 10 5 -3
7 5 6 17 -1 12 -3 25 -3 30 -1 4 -8 7 -16 7 -8 0 -15 5 -15 11 0 5 4 8 9 4 5
-3 13 -1 16 5 4 6 1 9 -7 8 -8 -2 -12 5 -11 17 1 11 0 14 -3 7 -3 -6 -11 -9
-17 -5 -8 5 -8 2 0 -8 10 -13 10 -16 -2 -16 -8 0 -13 2 -10 5 2 3 0 13 -5 23
-8 13 -6 21 7 29 15 9 14 10 -7 4 l-25 -7 20 23 20 23 -22 -12 c-27 -14 -45
-14 -20 0 19 11 23 29 6 29 -5 0 -7 -4 -4 -10 3 -5 1 -10 -4 -10 -6 0 -11 7
-11 16 0 9 -5 12 -12 8 -8 -5 -7 0 2 11 9 11 10 16 3 11 -7 -4 -13 -2 -13 3 0
6 -5 11 -11 11 -5 0 -7 -6 -3 -12 4 -8 3 -10 -2 -5 -5 5 -9 12 -10 15 -3 21
-18 41 -27 35 -6 -4 -7 -1 -2 7 7 11 12 9 23 -8 17 -26 28 -28 36 -6 6 14 4
15 -10 3 -14 -11 -15 -10 -12 7 2 11 -2 18 -10 16 -7 -1 -15 5 -18 13 -4 8
-12 15 -20 15 -8 0 -14 4 -14 10 0 5 6 8 13 6 6 -1 9 -1 4 1 -4 3 -4 10 -1 15
4 6 3 8 -2 5 -6 -3 -16 -2 -24 4 -13 7 -13 9 0 9 8 1 4 6 -9 11 -19 8 -21 12
-11 24 9 10 9 15 1 15 -6 0 -11 -4 -11 -10 0 -5 -4 -10 -9 -10 -6 0 -8 9 -6
20 2 11 1 19 -3 19 -21 -3 -32 2 -26 13 5 7 3 8 -6 3 -10 -6 -9 -11 6 -22 10
-8 18 -20 16 -27 -1 -7 8 -18 20 -23 23 -11 23 -11 -3 -9 -19 1 -26 6 -25 21
2 28 -15 37 -31 17 -12 -15 -13 -14 -3 6 10 21 4 28 -23 23 -5 -1 -6 3 -2 9 6
10 -5 13 -35 11 -10 0 -11 1 -2 5 6 3 12 13 12 22 0 15 -2 15 -10 2 -10 -15
-13 -6 -13 42 0 10 -4 15 -8 12 -5 -3 -7 -10 -4 -15 9 -14 -5 -11 -21 6 -19
18 -48 20 -38 3 6 -9 3 -9 -9 0 -9 8 -16 17 -15 20 2 21 -4 31 -17 26 -11 -4
-13 -2 -9 9 6 17 -12 32 -21 17 -4 -6 -11 -8 -16 -4 -5 3 -7 9 -5 13 3 4 -6 8
-20 9 -13 1 -24 -3 -24 -10 0 -6 -3 -8 -6 -5 -10 10 17 38 29 30 6 -3 7 -1 3
6 -4 6 -12 9 -17 5 -5 -3 -22 -7 -37 -10 l-27 -4 25 15 25 15 -30 -6 c-16 -4
-33 -11 -36 -16 -3 -5 -9 -2 -12 7 -4 9 -14 15 -23 13 -10 -2 -18 4 -19 15 -2
9 1 17 6 17 6 0 7 5 4 11 -5 6 -12 4 -22 -8 -11 -13 -13 -14 -10 -3 6 19 -39
26 -60 9 -7 -7 -16 -9 -20 -5 -3 3 -1 6 5 6 7 0 12 5 12 11 0 7 -11 4 -26 -6
-26 -17 -27 -16 -51 9 -28 31 -32 31 -49 9 -13 -17 -14 -17 -7 2 6 18 5 19
-12 5 -11 -9 -16 -10 -11 -2 6 10 -40 12 -223 10 -127 -1 -228 -5 -225 -10z
m509 -8 c3 -5 1 -10 -4 -10 -6 0 -11 5 -11 10 0 6 2 10 4 10 3 0 8 -4 11 -10z
m-643 -27 c-6 -2 -9 -10 -6 -15 4 -7 2 -8 -5 -4 -13 9 -5 26 12 25 9 0 8 -2
-1 -6z m-152 -72 c7 -14 7 -22 0 -26 -6 -4 -10 -3 -9 2 4 21 -2 34 -13 27 -7
-4 -8 -3 -4 4 10 16 14 15 26 -7z m1140 -26 c10 -12 16 -13 28 -3 13 11 15 10
10 -3 -4 -9 -2 -21 3 -26 6 -6 4 -10 -6 -10 -8 0 -13 3 -10 5 6 6 -37 38 -47
34 -5 -1 -8 3 -8 8 0 15 16 12 30 -5z m4 -33 c3 -5 -1 -9 -9 -9 -8 0 -12 4 -9
9 3 4 7 8 9 8 2 0 6 -4 9 -8z m124 -57 c-3 -3 -9 2 -12 12 -6 14 -5 15 5 6 7
-7 10 -15 7 -18z m32 -9 c0 -2 -7 -7 -16 -10 -8 -3 -12 -2 -9 4 6 10 25 14 25
6z m-1560 -70 c0 -3 -4 -8 -10 -11 -5 -3 -10 -1 -10 4 0 6 5 11 10 11 6 0 10
-2 10 -4z m-46 -21 c-4 -8 -11 -12 -16 -9 -6 4 -5 10 3 15 19 12 19 11 13 -6z
m1784 -64 c10 -6 10 -10 -3 -21 -13 -11 -14 -10 -9 5 5 13 4 16 -4 11 -7 -4
-12 -2 -12 3 0 13 10 14 28 2z m207 -310 c3 -5 2 -12 -3 -15 -5 -3 -9 1 -9 9
0 17 3 19 12 6z m-2315 -274 c0 -2 -7 -4 -15 -4 -8 0 -12 4 -9 9 3 4 0 8 -6 8
-6 0 -8 5 -5 10 6 9 35 -10 35 -23z m2415 -36 c3 -5 2 -12 -3 -15 -5 -3 -9 1
-9 9 0 17 3 19 12 6z m2 -66 c0 -8 -4 -12 -9 -9 -5 3 -6 10 -3 15 9 13 12 11
12 -6z m0 -290 c0 -8 -4 -12 -9 -9 -5 3 -6 10 -3 15 9 13 12 11 12 -6z m18
-65 c3 -5 1 -10 -4 -10 -6 0 -11 5 -11 10 0 6 2 10 4 10 3 0 8 -4 11 -10z
m-2430 -80 c-3 -5 -11 -10 -16 -10 -6 0 -7 5 -4 10 3 6 11 10 16 10 6 0 7 -4
4 -10z m2319 -181 c-3 -5 -11 -9 -17 -8 -8 0 -8 2 1 6 10 4 10 8 0 21 -12 15
-11 16 4 3 10 -7 15 -17 12 -22z m-89 -179 c3 -5 1 -10 -4 -10 -6 0 -11 5 -11
10 0 6 2 10 4 10 3 0 8 -4 11 -10z m-2075 -30 c-6 -11 -13 -20 -16 -20 -2 0 0
9 6 20 6 11 13 20 16 20 2 0 0 -9 -6 -20z m44 -28 c3 -5 -1 -9 -9 -9 -8 0 -12
4 -9 9 3 4 7 8 9 8 2 0 6 -4 9 -8z m-7 -39 c0 -9 -4 -10 -14 -2 -7 6 -13 12
-13 14 0 1 6 2 13 2 8 0 14 -6 14 -14z m77 -21 c3 -5 -1 -9 -9 -9 -8 0 -12 4
-9 9 3 4 7 8 9 8 2 0 6 -4 9 -8z m41 -102 c3 -5 1 -10 -4 -10 -6 0 -11 5 -11
10 0 6 2 10 4 10 3 0 8 -4 11 -10z m1701 -39 c-2 -40 -9 -45 -32 -19 -15 18
-16 20 -1 9 11 -9 17 -10 18 -2 1 6 3 16 4 21 1 6 3 12 4 15 4 16 8 1 7 -24z
m-1604 -48 c-6 -3 -9 -10 -5 -16 5 -8 2 -8 -9 0 -8 7 -19 9 -23 5 -5 -4 -6 -2
-2 3 3 6 16 11 29 12 13 0 17 -1 10 -4z m1471 -47 c7 -18 -18 -42 -28 -26 -4
6 -1 9 7 8 8 -2 12 4 10 15 -3 21 4 23 11 3z m-45 -31 c-3 -3 -9 2 -12 12 -6
14 -5 15 5 6 7 -7 10 -15 7 -18z m-14 -11 c3 -8 2 -12 -4 -9 -6 3 -10 10 -10
16 0 14 7 11 14 -7z m-29 -12 c-3 -3 -11 0 -18 7 -9 10 -8 11 6 5 10 -3 15 -9
12 -12z m-430 -172 c-3 -5 -12 -10 -18 -10 -7 0 -6 4 3 10 19 12 23 12 15 0z
m-368 -13 c0 -8 -6 -14 -14 -14 -9 0 -10 4 -2 14 6 7 12 13 14 13 1 0 2 -6 2
-13z"/>
<path d="M866 2468 c3 -5 10 -6 15 -3 13 9 11 12 -6 12 -8 0 -12 -4 -9 -9z"/>
<path d="M1507 2469 c7 -7 15 -10 18 -7 3 3 -2 9 -12 12 -14 6 -15 5 -6 -5z"/>
<path d="M1669 2433 c-13 -16 -12 -17 4 -4 9 7 17 15 17 17 0 8 -8 3 -21 -13z"/>
<path d="M1696 2418 c3 -5 10 -6 15 -3 13 9 11 12 -6 12 -8 0 -12 -4 -9 -9z"/>
<path d="M615 2380 c-3 -5 -1 -10 4 -10 6 0 11 5 11 10 0 6 -2 10 -4 10 -3 0
-8 -4 -11 -10z"/>
<path d="M1896 2347 c3 -10 9 -15 12 -12 3 3 0 11 -7 18 -10 9 -11 8 -5 -6z"/>
<path d="M430 2250 c-7 -10 -17 -17 -20 -15 -4 2 -7 -3 -7 -11 0 -11 7 -8 26
10 14 14 23 28 20 30 -3 3 -11 -3 -19 -14z"/>
<path d="M2023 2237 c0 -9 4 -14 8 -12 4 3 10 -2 13 -11 6 -17 26 -10 25 9 0
9 -2 8 -6 -1 -3 -8 -10 -5 -22 9 -14 18 -18 19 -18 6z"/>
<path d="M118 1861 c10 -6 8 -10 -9 -14 -13 -4 -20 -9 -17 -12 9 -10 49 15 43
26 -4 5 -12 9 -18 9 -8 0 -8 -3 1 -9z"/>
<path d="M85 1809 c-4 -6 -5 -12 -2 -15 2 -3 7 2 10 11 7 17 1 20 -8 4z"/>
<path d="M60 1730 c-8 -5 -12 -12 -9 -15 4 -3 12 1 19 10 14 17 11 19 -10 5z"/>
<path d="M2410 839 c0 -5 5 -7 10 -4 6 3 10 8 10 11 0 2 -4 4 -10 4 -5 0 -10
-5 -10 -11z"/>
<path d="M60 824 c0 -6 7 -19 16 -30 14 -18 14 -18 3 6 -14 31 -19 36 -19 24z"/>
<path d="M95 709 c-4 -6 -5 -12 -2 -15 2 -3 7 2 10 11 7 17 1 20 -8 4z"/>
<path d="M136 657 c3 -10 9 -15 12 -12 3 3 0 11 -7 18 -10 9 -11 8 -5 -6z"/>
<path d="M2206 512 c-3 -5 1 -9 9 -9 8 0 15 4 15 9 0 4 -4 8 -9 8 -6 0 -12 -4
-15 -8z"/>
<path d="M2126 411 c-3 -5 1 -11 9 -14 9 -4 12 -1 8 9 -6 16 -10 17 -17 5z"/>
<path d="M1977 283 c-11 -13 -16 -27 -13 -30 3 -4 6 -1 6 7 0 10 4 10 18 -1
15 -12 16 -12 5 2 -10 12 -10 18 -1 27 6 6 10 14 7 16 -2 2 -12 -7 -22 -21z"/>
<path d="M770 120 c0 -5 5 -10 11 -10 5 0 7 5 4 10 -3 6 -8 10 -11 10 -2 0 -4
-4 -4 -10z"/>
</g>
</svg>
